  0
SECTION
  2
HEADER
  9
$ACADVER
  1
AC1006
  0
ENDSEC
  0
SECTION
  2
TABLES
  0
TABLE
  2
LTYPE
 70
    25
  0
LTYPE
  2
CONTINUOUS
 70
    64
  3
Solid line
 72
    64
 73
     0
 40
0.000000
  0
LTYPE
  2
DASHDOT
 70
    64
  3
__ . __ . __ . __ . __ . __ . __ . __ . __ . __
 72
    65
 73
     4
 40
1.000000
 49
0.500000
 49
-0.250000
 49
0.000000
 49
-0.250000
  0
LTYPE
  2
DASHED
 70
    64
  3
__ __ __ __ __ __ __ __ __ __ __ __ __ __ __ __
 72
    65
 73
     2
 40
0.750000
 49
0.500000
 49
-0.250000
  0
LTYPE
  2
DIVIDE
 70
    64
  3
____ . . ____ . . ____ . . ____ . . ____ . . __
 72
    65
 73
     6
 40
1.250000
 49
0.500000
 49
-0.250000
 49
0.000000
 49
-0.250000
 49
0.000000
 49
-0.250000
  0
LTYPE
  2
DOT
 70
    64
  3
. . . . . . . . . . . . . . . . . . . . . . . . 
 72
    65
 73
     2
 40
0.250000
 49
0.000000
 49
-0.250000
  0
ENDTAB
  0
ENDSEC
  0
SECTION
  2
ENTITIES
  0
LINE
  8
1
 62
     7
  6
DOT
 10
0.000000
 20
0.000000
 30
1.000000
 11
5.990000
 21
6.730000
 31
0.000000
  0
LINE
  8
1
 62
     7
  6
CONTINUOUS
 10
5.990000
 20
6.730000
 30
0.000000
 11
5.880000
 21
6.560000
 31
0.000000
  0
LINE
  8
1
 62
     7
  6
DOT
 10
5.880000
 20
6.560000
 30
0.000000
 11
5.700000
 21
6.650000
 31
0.000000
  0
LINE
  8
1
 62
     7
  6
DOT
 10
5.700000
 20
6.650000
 30
0.000000
 11
5.697351
 21
6.644702
 31
0.000000
  0
ARC
  8
1
 62
     7
  6
CONTINUOUS
 10
5.710000
 20
6.670000
 30
0.000000
 40
0.028284
 50
135.000000
 51
243.434949
  0
LINE
  8
1
 62
     7
  6
CONTINUOUS
 10
5.690000
 20
6.690000
 30
0.000000
 11
5.720000
 21
6.720000
 31
0.000000
  0
LINE
  8
1
 62
     7
  6
CONTINUOUS
 10
5.720000
 20
6.720000
 30
0.000000
 11
5.720364
 21
6.719573
 31
0.000000
  0
ARC
  8
1
 62
     7
  6
CONTINUOUS
 10
5.200000
 20
7.330000
 30
0.000000
 40
0.802122
 50
310.446232
 51
324.130176
  0
LINE
  8
1
 62
     7
  6
CONTINUOUS
 10
5.850000
 20
6.860000
 30
0.000000
 11
5.950000
 21
7.030000
 31
0.000000
  0
LINE
  8
1
 62
     7
  6
CONTINUOUS
 10
5.950000
 20
7.030000
 30
0.000000
 11
5.947421
 21
7.031152
 31
0.000000
  0
ARC
  8
1
 62
     7
  6
CONTINUOUS
 10
5.480000
 20
7.240000
 30
0.000000
 40
0.511957
 50
335.924502
 51
372.407419
  0
LINE
  8
1
 62
     7
  6
CONTINUOUS
 10
5.980000
 20
7.350000
 30
0.000000
 11
5.984327
 21
7.351278
 31
0.000000
  0
ARC
  8
1
 62
     7
  6
CONTINUOUS
 10
4.930000
 20
7.040000
 30
0.000000
 40
1.099318
 50
16.448608
 51
31.231910
  0
LINE
  8
1
 62
     7
  6
CONTINUOUS
 10
5.870000
 20
7.610000
 30
0.000000
 11
5.864505
 21
7.604505
 31
0.000000
  0
ARC
  8
1
 62
     7
  6
CONTINUOUS
 10
5.890000
 20
7.630000
 30
0.000000
 40
0.036056
 50
213.690068
 51
225.000000
  0
LINE
  8
1
 62
     7
  6
CONTINUOUS
 10
5.860000
 20
7.610000
 30
0.000000
 11
5.865598
 21
7.612799
 31
0.000000
  0
ARC
  8
1
 62
     7
  6
CONTINUOUS
 10
6.020000
 20
7.690000
 30
0.000000
 40
0.172627
 50
169.992020
 51
206.565051
  0
ARC
  8
1
 62
     7
  6
CONTINUOUS
 10
5.870000
 20
7.720000
 30
0.000000
 40
0.020000
 50
90.000000
 51
180.000000
  0
LINE
  8
1
 62
     7
  6
CONTINUOUS
 10
5.870000
 20
7.740000
 30
0.000000
 11
5.890000
 21
7.750000
 31
0.000000
  0
LINE
  8
1
 62
     7
  6
CONTINUOUS
 10
5.890000
 20
7.750000
 30
0.000000
 11
5.890221
 21
7.746357
 31
0.000000
  0
ARC
  8
1
 62
     7
  6
CONTINUOUS
 10
5.910000
 20
7.420000
 30
0.000000
 40
0.326956
 50
66.571307
 51
93.468229
  0
LINE
  8
1
 62
     7
  6
CONTINUOUS
 10
6.040000
 20
7.720000
 30
0.000000
 11
6.038944
 21
7.716833
 31
0.000000
  0
ARC
  8
1
 62
     7
  6
CONTINUOUS
 10
6.030000
 20
7.690000
 30
0.000000
 40
0.028284
 50
45.000000
 51
71.565051
  0
LINE
  8
1
 62
     7
  6
CONTINUOUS
 10
6.050000
 20
7.710000
 30
0.000000
 11
6.047873
 21
7.706739
 31
0.000000
  0
ARC
  8
1
 62
     7
  6
CONTINUOUS
 10
5.600000
 20
7.020000
 30
0.000000
 40
0.819878
 50
30.004921
 51
56.888658
  0
LINE
  8
1
 62
     7
  6
CONTINUOUS
 10
6.310000
 20
7.430000
 30
0.000000
 11
6.314628
 21
7.432353
 31
0.000000
  0
ARC
  8
1
 62
     7
  6
CONTINUOUS
 10
5.720000
 20
7.130000
 30
0.000000
 40
0.667083
 50
336.124719
 51
386.952179
  0
LINE
  8
1
 62
     7
  6
CONTINUOUS
 10
6.330000
 20
6.860000
 30
0.000000
 11
6.320920
 21
6.863535
 31
0.000000
  0
ARC
  8
1
 62
     7
  6
CONTINUOUS
 10
5.020000
 20
7.370000
 30
0.000000
 40
1.396030
 50
318.775466
 51
338.728391
  0
ARC
  8
1
 62
     7
  6
CONTINUOUS
 10
6.050000
 20
6.460000
 30
0.000000
 40
0.022361
 50
243.434949
 51
333.434949
  0
LINE
  8
1
 62
     7
  6
CONTINUOUS
 10
6.040000
 20
6.440000
 30
0.000000
 11
6.037568
 21
6.437267
 31
0.000000
  0
ARC
  8
1
 62
     7
  6
CONTINUOUS
 10
5.230000
 20
5.530000
 30
0.000000
 40
1.214619
 50
48.327404
 51
67.234991
  0
LINE
  8
1
 62
     7
  6
DOT
 10
5.700000
 20
6.650000
 30
0.000000
 11
5.750000
 21
6.830000
 31
0.000000
  0
LINE
  8
1
 62
     7
  6
CONTINUOUS
 10
5.750000
 20
6.830000
 30
0.000000
 11
5.830000
 21
6.930000
 31
0.000000
  0
LINE
  8
1
 62
     7
  6
CONTINUOUS
 10
5.830000
 20
6.930000
 30
0.000000
 11
5.832280
 21
6.928372
 31
0.000000
  0
ARC
  8
1
 62
     7
  6
CONTINUOUS
 10
5.410000
 20
7.230000
 30
0.000000
 40
0.518941
 50
324.462322
 51
385.083594
  0
LINE
  8
1
 62
     7
  6
CONTINUOUS
 10
5.880000
 20
7.450000
 30
0.000000
 11
5.876346
 21
7.448087
 31
0.000000
  0
ARC
  8
1
 62
     7
  6
CONTINUOUS
 10
4.600000
 20
6.780000
 30
0.000000
 40
1.440625
 50
27.629247
 51
58.626995
  0
LINE
  8
1
 62
     7
  6
CONTINUOUS
 10
5.350000
 20
8.010000
 30
0.000000
 11
5.380000
 21
8.020000
 31
0.000000
  0
LINE
  8
1
 62
     7
  6
CONTINUOUS
 10
5.380000
 20
8.020000
 30
0.000000
 11
5.410000
 21
8.020000
 31
0.000000
  0
LINE
  8
1
 62
     7
  6
CONTINUOUS
 10
5.410000
 20
8.020000
 30
0.000000
 11
5.410546
 21
8.024288
 31
0.000000
  0
ARC
  8
1
 62
     7
  6
CONTINUOUS
 10
5.210000
 20
6.450000
 30
0.000000
 40
1.587010
 50
48.576334
 51
82.740276
  0
LINE
  8
1
 62
     7
  6
CONTINUOUS
 10
6.260000
 20
7.640000
 30
0.000000
 11
6.260885
 21
7.640885
 31
0.000000
  0
ARC
  8
1
 62
     7
  6
CONTINUOUS
 10
5.780000
 20
7.160000
 30
0.000000
 40
0.680074
 50
342.897271
 51
405.000000
  0
LINE
  8
1
 62
     7
  6
CONTINUOUS
 10
6.430000
 20
6.960000
 30
0.000000
 11
6.426250
 21
6.961045
 31
0.000000
  0
ARC
  8
1
 62
     7
  6
CONTINUOUS
 10
5.030000
 20
7.350000
 30
0.000000
 40
1.449414
 50
320.599339
 51
344.433682
  0
LINE
  8
1
 62
     7
  6
CONTINUOUS
 10
6.150000
 20
6.430000
 30
0.000000
 11
6.140000
 21
6.390000
 31
0.000000
  0
LINE
  8
1
 62
     7
  6
CONTINUOUS
 10
6.140000
 20
6.390000
 30
0.000000
 11
6.142864
 21
6.385462
 31
0.000000
  0
ARC
  8
1
 62
     7
  6
CONTINUOUS
 10
5.490000
 20
7.420000
 30
0.000000
 40
1.223315
 50
302.254711
 51
315.331186
  0
LINE
  8
1
 62
     7
  6
CONTINUOUS
 10
6.360000
 20
6.560000
 30
0.000000
 11
6.500000
 21
6.670000
 31
0.000000
  0
LINE
  8
1
 62
     7
  6
CONTINUOUS
 10
6.500000
 20
6.670000
 30
0.000000
 11
6.500377
 21
6.669488
 31
0.000000
  0
ARC
  8
1
 62
     7
  6
CONTINUOUS
 10
7.060000
 20
5.910000
 30
0.000000
 40
0.943398
 50
111.124719
 51
126.384352
  0
LINE
  8
1
 62
     7
  6
CONTINUOUS
 10
6.720000
 20
6.790000
 30
0.000000
 11
6.719336
 21
6.789478
 31
0.000000
  0
ARC
  8
1
 62
     7
  6
CONTINUOUS
 10
6.580000
 20
6.680000
 30
0.000000
 40
0.177200
 50
343.610460
 51
398.157227
  0
LINE
  8
1
 62
     7
  6
CONTINUOUS
 10
6.750000
 20
6.630000
 30
0.000000
 11
6.750987
 21
6.629810
 31
0.000000
  0
ARC
  8
1
 62
     7
  6
CONTINUOUS
 10
5.920000
 20
6.790000
 30
0.000000
 40
0.846286
 50
305.380272
 51
349.088872
  0
LINE
  8
1
 62
     7
  6
CONTINUOUS
 10
6.410000
 20
6.100000
 30
0.000000
 11
6.410000
 21
6.040000
 31
0.000000
  0
LINE
  8
1
 62
     7
  6
CONTINUOUS
 10
6.410000
 20
6.040000
 30
0.000000
 11
6.480000
 21
5.900000
 31
0.000000
  0
LINE
  8
1
 62
     7
  6
CONTINUOUS
 10
6.480000
 20
5.900000
 30
0.000000
 11
6.490000
 21
5.890000
 31
0.000000
  0
LINE
  8
1
 62
     7
  6
CONTINUOUS
 10
6.490000
 20
5.890000
 30
0.000000
 11
6.493373
 21
5.892209
 31
0.000000
  0
ARC
  8
1
 62
     7
  6
CONTINUOUS
 10
3.940000
 20
4.220000
 30
0.000000
 40
3.052212
 50
15.584401
 51
33.220868
  0
LINE
  8
1
 62
     7
  6
CONTINUOUS
 10
6.880000
 20
5.040000
 30
0.000000
 11
6.910000
 21
5.020000
 31
0.000000
  0
LINE
  8
1
 62
     7
  6
CONTINUOUS
 10
6.910000
 20
5.020000
 30
0.000000
 11
6.910172
 21
5.019721
 31
0.000000
  0
ARC
  8
1
 62
     7
  6
CONTINUOUS
 10
6.990000
 20
4.890000
 30
0.000000
 40
0.152315
 50
66.801409
 51
121.607502
  0
LINE
  8
1
 62
     7
  6
CONTINUOUS
 10
7.050000
 20
5.030000
 30
0.000000
 11
7.053686
 21
5.035138
 31
0.000000
  0
ARC
  8
1
 62
     7
  6
CONTINUOUS
 10
6.720000
 20
4.570000
 30
0.000000
 40
0.572451
 50
27.012665
 51
54.344672
  0
LINE
  8
1
 62
     7
  6
CONTINUOUS
 10
7.230000
 20
4.830000
 30
0.000000
 11
7.290000
 21
4.680000
 31
0.000000
  0
LINE
  8
1
 62
     7
  6
CONTINUOUS
 10
7.290000
 20
4.680000
 30
0.000000
 11
7.320000
 21
4.620000
 31
0.000000
  0
LINE
  8
1
 62
     7
  6
CONTINUOUS
 10
7.320000
 20
4.620000
 30
0.000000
 11
7.410000
 21
4.650000
 31
0.000000
  0
LINE
  8
1
 62
     7
  6
DOT
 10
7.410000
 20
4.650000
 30
0.000000
 11
7.320000
 21
4.620000
 31
0.000000
  0
LINE
  8
1
 62
     7
  6
CONTINUOUS
 10
7.320000
 20
4.620000
 30
0.000000
 11
7.340000
 21
4.560000
 31
0.000000
  0
LINE
  8
1
 62
     7
  6
CONTINUOUS
 10
7.340000
 20
4.560000
 30
0.000000
 11
7.334341
 21
4.559342
 31
0.000000
  0
ARC
  8
1
 62
     7
  6
CONTINUOUS
 10
6.910000
 20
4.510000
 30
0.000000
 40
0.427200
 50
327.425943
 51
366.632515
  0
LINE
  8
1
 62
     7
  6
CONTINUOUS
 10
7.270000
 20
4.280000
 30
0.000000
 11
7.230000
 21
4.210000
 31
0.000000
  0
LINE
  8
1
 62
     7
  6
CONTINUOUS
 10
7.230000
 20
4.210000
 30
0.000000
 11
7.190000
 21
4.150000
 31
0.000000
  0
LINE
  8
1
 62
     7
  6
CONTINUOUS
 10
7.190000
 20
4.150000
 30
0.000000
 11
7.160000
 21
4.090000
 31
0.000000
  0
LINE
  8
1
 62
     7
  6
CONTINUOUS
 10
7.160000
 20
4.090000
 30
0.000000
 11
7.153481
 21
4.094554
 31
0.000000
  0
ARC
  8
1
 62
     7
  6
CONTINUOUS
 10
6.430000
 20
4.600000
 30
0.000000
 40
0.882553
 50
289.872176
 51
325.060690
  0
LINE
  8
1
 62
     7
  6
CONTINUOUS
 10
6.730000
 20
3.770000
 30
0.000000
 11
6.730315
 21
3.766434
 31
0.000000
  0
ARC
  8
1
 62
     7
  6
CONTINUOUS
 10
6.670000
 20
4.450000
 30
0.000000
 40
0.686222
 50
251.301017
 51
275.042451
  0
LINE
  8
1
 62
     7
  6
CONTINUOUS
 10
6.450000
 20
3.800000
 30
0.000000
 11
6.449624
 21
3.798184
 31
0.000000
  0
ARC
  8
1
 62
     7
  6
CONTINUOUS
 10
6.570000
 20
4.380000
 30
0.000000
 40
0.594138
 50
223.636072
 51
258.310631
  0
LINE
  8
1
 62
     7
  6
CONTINUOUS
 10
6.140000
 20
3.970000
 30
0.000000
 11
6.140000
 21
4.100000
 31
0.000000
  0
LINE
  8
1
 62
     7
  6
CONTINUOUS
 10
6.140000
 20
4.100000
 30
0.000000
 11
6.100000
 21
4.130000
 31
0.000000
  0
LINE
  8
1
 62
     7
  6
CONTINUOUS
 10
6.100000
 20
4.130000
 30
0.000000
 11
6.090000
 21
4.130000
 31
0.000000
  0
LINE
  8
1
 62
     7
  6
CONTINUOUS
 10
6.090000
 20
4.130000
 30
0.000000
 11
6.050000
 21
4.140000
 31
0.000000
  0
LINE
  8
1
 62
     7
  6
CONTINUOUS
 10
6.050000
 20
4.140000
 30
0.000000
 11
5.950000
 21
4.150000
 31
0.000000
  0
LINE
  8
1
 62
     7
  6
CONTINUOUS
 10
5.950000
 20
4.150000
 30
0.000000
 11
5.770000
 21
4.180000
 31
0.000000
  0
LINE
  8
1
 62
     7
  6
CONTINUOUS
 10
5.770000
 20
4.180000
 30
0.000000
 11
5.768915
 21
4.174804
 31
0.000000
  0
ARC
  8
1
 62
     7
  6
CONTINUOUS
 10
6.480000
 20
7.580000
 30
0.000000
 40
3.478649
 50
252.085908
 51
258.204796
  0
LINE
  8
1
 62
     7
  6
CONTINUOUS
 10
5.410000
 20
4.270000
 30
0.000000
 11
5.409985
 21
4.269940
 31
0.000000
  0
ARC
  8
1
 62
     7
  6
CONTINUOUS
 10
5.610000
 20
5.050000
 30
0.000000
 40
0.805295
 50
245.026089
 51
255.618605
  0
LINE
  8
1
 62
     7
  6
CONTINUOUS
 10
5.270000
 20
4.320000
 30
0.000000
 11
5.260000
 21
4.330000
 31
0.000000
  0
LINE
  8
1
 62
     7
  6
CONTINUOUS
 10
5.260000
 20
4.330000
 30
0.000000
 11
5.259842
 21
4.329661
 31
0.000000
  0
ARC
  8
1
 62
     7
  6
CONTINUOUS
 10
4.750000
 20
3.240000
 30
0.000000
 40
1.203038
 50
64.925581
 51
76.541315
  0
LINE
  8
1
 62
     7
  6
CONTINUOUS
 10
5.030000
 20
4.410000
 30
0.000000
 11
5.010000
 21
4.400000
 31
0.000000
  0
LINE
  8
1
 62
     7
  6
CONTINUOUS
 10
5.010000
 20
4.400000
 30
0.000000
 11
5.005195
 21
4.402964
 31
0.000000
  0
ARC
  8
1
 62
     7
  6
CONTINUOUS
 10
3.470000
 20
5.350000
 30
0.000000
 40
1.803802
 50
316.572430
 51
328.330265
  0
LINE
  8
1
 62
     7
  6
CONTINUOUS
 10
4.780000
 20
4.110000
 30
0.000000
 11
4.783791
 21
4.106390
 31
0.000000
  0
ARC
  8
1
 62
     7
  6
CONTINUOUS
 10
4.360000
 20
4.510000
 30
0.000000
 40
0.585235
 50
286.886791
 51
316.397181
  0
LINE
  8
1
 62
     7
  6
CONTINUOUS
 10
4.530000
 20
3.950000
 30
0.000000
 11
4.527896
 21
3.953945
 31
0.000000
  0
ARC
  8
1
 62
     7
  6
CONTINUOUS
 10
4.450000
 20
4.100000
 30
0.000000
 40
0.165529
 50
244.983107
 51
298.072487
  0
LINE
  8
1
 62
     7
  6
CONTINUOUS
 10
4.380000
 20
3.950000
 30
0.000000
 11
4.380490
 21
3.949981
 31
0.000000
  0
ARC
  8
1
 62
     7
  6
CONTINUOUS
 10
4.890000
 20
3.930000
 30
0.000000
 40
0.509902
 50
154.440035
 51
177.754257
  0
LINE
  8
1
 62
     7
  6
CONTINUOUS
 10
4.430000
 20
4.150000
 30
0.000000
 11
4.432241
 21
4.149022
 31
0.000000
  0
ARC
  8
1
 62
     7
  6
CONTINUOUS
 10
7.730000
 20
2.710000
 30
0.000000
 40
3.598055
 50
148.872386
 51
156.425294
  0
LINE
  8
1
 62
     7
  6
CONTINUOUS
 10
4.650000
 20
4.570000
 30
0.000000
 11
4.650000
 21
4.610000
 31
0.000000
  0
LINE
  8
1
 62
     7
  6
CONTINUOUS
 10
4.650000
 20
4.610000
 30
0.000000
 11
4.600000
 21
4.550000
 31
0.000000
  0
LINE
  8
1
 62
     7
  6
CONTINUOUS
 10
4.600000
 20
4.550000
 30
0.000000
 11
4.580000
 21
4.540000
 31
0.000000
  0
LINE
  8
1
 62
     7
  6
CONTINUOUS
 10
4.580000
 20
4.540000
 30
0.000000
 11
4.450000
 21
4.410000
 31
0.000000
  0
LINE
  8
1
 62
     7
  6
CONTINUOUS
 10
4.450000
 20
4.410000
 30
0.000000
 11
4.452397
 21
4.407383
 31
0.000000
  0
ARC
  8
1
 62
     7
  6
CONTINUOUS
 10
3.690000
 20
5.240000
 30
0.000000
 40
1.128938
 50
288.595441
 51
312.479172
  0
LINE
  8
1
 62
     7
  6
CONTINUOUS
 10
4.050000
 20
4.170000
 30
0.000000
 11
4.049433
 21
4.171778
 31
0.000000
  0
ARC
  8
1
 62
     7
  6
CONTINUOUS
 10
3.830000
 20
4.860000
 30
0.000000
 40
0.722357
 50
248.051301
 51
287.684392
  0
LINE
  8
1
 62
     7
  6
CONTINUOUS
 10
3.560000
 20
4.190000
 30
0.000000
 11
3.563122
 21
4.196919
 31
0.000000
  0
ARC
  8
1
 62
     7
  6
CONTINUOUS
 10
3.930000
 20
5.010000
 30
0.000000
 40
0.892020
 50
217.255289
 51
245.714175
  0
LINE
  8
1
 62
     7
  6
CONTINUOUS
 10
3.220000
 20
4.470000
 30
0.000000
 11
3.212738
 21
4.464441
 31
0.000000
  0
ARC
  8
1
 62
     7
  6
CONTINUOUS
 10
4.840000
 20
5.710000
 30
0.000000
 40
2.049244
 50
197.904448
 51
217.431603
  0
LINE
  8
1
 62
     7
  6
CONTINUOUS
 10
2.890000
 20
5.080000
 30
0.000000
 11
3.130000
 21
4.880000
 31
0.000000
  0
LINE
  8
1
 62
     7
  6
CONTINUOUS
 10
3.130000
 20
4.880000
 30
0.000000
 11
3.260000
 21
4.790000
 31
0.000000
  0
LINE
  8
1
 62
     7
  6
CONTINUOUS
 10
3.260000
 20
4.790000
 30
0.000000
 11
3.290000
 21
4.770000
 31
0.000000
  0
LINE
  8
1
 62
     7
  6
CONTINUOUS
 10
3.290000
 20
4.770000
 30
0.000000
 11
3.430000
 21
4.700000
 31
0.000000
  0
LINE
  8
1
 62
     7
  6
CONTINUOUS
 10
3.430000
 20
4.700000
 30
0.000000
 11
3.432741
 21
4.705373
 31
0.000000
  0
ARC
  8
1
 62
     7
  6
CONTINUOUS
 10
3.680000
 20
5.190000
 30
0.000000
 40
0.544059
 50
242.969140
 51
323.972627
  0
LINE
  8
1
 62
     7
  6
CONTINUOUS
 10
4.120000
 20
4.870000
 30
0.000000
 11
4.330000
 21
5.170000
 31
0.000000
  0
LINE
  8
1
 62
     7
  6
CONTINUOUS
 10
4.330000
 20
5.170000
 30
0.000000
 11
4.580000
 21
5.490000
 31
0.000000
  0
LINE
  8
1
 62
     7
  6
CONTINUOUS
 10
4.580000
 20
5.490000
 30
0.000000
 11
5.100000
 21
6.130000
 31
0.000000
  0
LINE
  8
1
 62
     7
  6
CONTINUOUS
 10
5.100000
 20
6.130000
 30
0.000000
 11
5.470000
 21
6.540000
 31
0.000000
  0
LINE
  8
1
 62
     7
  6
CONTINUOUS
 10
5.470000
 20
6.540000
 30
0.000000
 11
5.750000
 21
6.830000
 31
0.000000
  0
LINE
  8
1
 62
     7
  6
DOT
 10
5.750000
 20
6.830000
 30
0.000000
 11
6.280000
 21
6.150000
 31
0.000000
  0
LINE
  8
1
 62
     7
  6
CONTINUOUS
 10
6.280000
 20
6.150000
 30
0.000000
 11
6.290000
 21
6.120000
 31
0.000000
  0
LINE
  8
1
 62
     7
  6
CONTINUOUS
 10
6.290000
 20
6.120000
 30
0.000000
 11
6.300000
 21
6.070000
 31
0.000000
  0
LINE
  8
1
 62
     7
  6
CONTINUOUS
 10
6.300000
 20
6.070000
 30
0.000000
 11
6.240000
 21
6.000000
 31
0.000000
  0
LINE
  8
1
 62
     7
  6
CONTINUOUS
 10
6.240000
 20
6.000000
 30
0.000000
 11
6.240000
 21
5.970000
 31
0.000000
  0
LINE
  8
1
 62
     7
  6
CONTINUOUS
 10
6.240000
 20
5.970000
 30
0.000000
 11
6.241659
 21
5.971175
 31
0.000000
  0
ARC
  8
1
 62
     7
  6
CONTINUOUS
 10
6.000000
 20
5.800000
 30
0.000000
 40
0.296142
 50
11.689369
 51
35.311213
  0
LINE
  8
1
 62
     7
  6
CONTINUOUS
 10
6.290000
 20
5.860000
 30
0.000000
 11
6.300000
 21
5.700000
 31
0.000000
  0
LINE
  8
1
 62
     7
  6
CONTINUOUS
 10
6.300000
 20
5.700000
 30
0.000000
 11
6.292598
 21
5.706344
 31
0.000000
  0
ARC
  8
1
 62
     7
  6
CONTINUOUS
 10
6.160000
 20
5.820000
 30
0.000000
 40
0.174642
 50
319.398705
 51
373.240520
  0
LINE
  8
1
 62
     7
  6
CONTINUOUS
 10
6.330000
 20
5.860000
 30
0.000000
 11
6.290000
 21
5.960000
 31
0.000000
  0
LINE
  8
1
 62
     7
  6
CONTINUOUS
 10
6.290000
 20
5.960000
 30
0.000000
 11
6.292929
 21
5.962929
 31
0.000000
  0
ARC
  8
1
 62
     7
  6
CONTINUOUS
 10
6.300000
 20
5.970000
 30
0.000000
 40
0.010000
 50
90.000000
 51
225.000000
  0
ARC
  8
1
 62
     7
  6
CONTINUOUS
 10
6.310000
 20
5.960000
 30
0.000000
 40
0.022361
 50
26.565051
 51
116.565051
  0
LINE
  8
1
 62
     7
  6
CONTINUOUS
 10
6.330000
 20
5.970000
 30
0.000000
 11
6.328263
 21
5.968842
 31
0.000000
  0
ARC
  8
1
 62
     7
  6
CONTINUOUS
 10
6.090000
 20
5.810000
 30
0.000000
 40
0.286356
 50
12.094757
 51
33.690068
  0
LINE
  8
1
 62
     7
  6
CONTINUOUS
 10
6.370000
 20
5.870000
 30
0.000000
 11
6.370000
 21
5.760000
 31
0.000000
  0
LINE
  8
1
 62
     7
  6
CONTINUOUS
 10
6.370000
 20
5.760000
 30
0.000000
 11
6.350000
 21
5.710000
 31
0.000000
  0
LINE
  8
1
 62
     7
  6
CONTINUOUS
 10
6.350000
 20
5.710000
 30
0.000000
 11
6.290000
 21
5.640000
 31
0.000000
  0
LINE
  8
1
 62
     7
  6
CONTINUOUS
 10
6.290000
 20
5.640000
 30
0.000000
 11
6.290000
 21
5.630000
 31
0.000000
  0
LINE
  8
1
 62
     7
  6
CONTINUOUS
 10
6.290000
 20
5.630000
 30
0.000000
 11
6.320000
 21
5.620000
 31
0.000000
  0
LINE
  8
1
 62
     7
  6
CONTINUOUS
 10
6.320000
 20
5.620000
 30
0.000000
 11
6.350000
 21
5.630000
 31
0.000000
  0
LINE
  8
1
 62
     7
  6
CONTINUOUS
 10
6.350000
 20
5.630000
 30
0.000000
 11
6.380000
 21
5.640000
 31
0.000000
  0
LINE
  8
1
 62
     7
  6
CONTINUOUS
 10
6.380000
 20
5.640000
 30
0.000000
 11
6.430000
 21
5.700000
 31
0.000000
  0
LINE
  8
1
 62
     7
  6
CONTINUOUS
 10
6.430000
 20
5.700000
 30
0.000000
 11
6.460000
 21
5.820000
 31
0.000000
  0
LINE
  8
1
 62
     7
  6
CONTINUOUS
 10
6.460000
 20
5.820000
 30
0.000000
 11
6.465858
 21
5.820000
 31
0.000000
  0
ARC
  8
1
 62
     7
  6
CONTINUOUS
 10
6.480000
 20
5.820000
 30
0.000000
 40
0.014142
 50
315.000000
 51
540.000000
  0
LINE
  8
1
 62
     7
  6
CONTINUOUS
 10
6.490000
 20
5.810000
 30
0.000000
 11
6.484994
 21
5.810334
 31
0.000000
  0
ARC
  8
1
 62
     7
  6
CONTINUOUS
 10
6.040000
 20
5.840000
 30
0.000000
 40
0.445982
 50
340.346176
 51
356.185925
  0
LINE
  8
1
 62
     7
  6
CONTINUOUS
 10
6.460000
 20
5.690000
 30
0.000000
 11
6.465163
 21
5.687741
 31
0.000000
  0
ARC
  8
1
 62
     7
  6
CONTINUOUS
 10
6.300000
 20
5.760000
 30
0.000000
 40
0.180278
 50
266.820170
 51
336.370622
  0
LINE
  8
1
 62
     7
  6
CONTINUOUS
 10
6.290000
 20
5.580000
 30
0.000000
 11
6.280000
 21
5.560000
 31
0.000000
  0
LINE
  8
1
 62
     7
  6
CONTINUOUS
 10
6.280000
 20
5.560000
 30
0.000000
 11
6.277168
 21
5.556036
 31
0.000000
  0
ARC
  8
1
 62
     7
  6
CONTINUOUS
 10
6.380000
 20
5.700000
 30
0.000000
 40
0.176918
 50
234.462322
 51
312.709390
  0
LINE
  8
1
 62
     7
  6
CONTINUOUS
 10
6.500000
 20
5.570000
 30
0.000000
 11
6.550000
 21
5.650000
 31
0.000000
  0
ARC
  8
1
 62
     7
  6
CONTINUOUS
 10
6.560000
 20
5.640000
 30
0.000000
 40
0.014142
 50
315.000000
 51
495.000000
  0
LINE
  8
1
 62
     7
  6
CONTINUOUS
 10
6.570000
 20
5.630000
 30
0.000000
 11
6.564648
 21
5.630765
 31
0.000000
  0
ARC
  8
1
 62
     7
  6
CONTINUOUS
 10
6.430000
 20
5.650000
 30
0.000000
 40
0.136015
 50
287.102729
 51
351.869898
  0
LINE
  8
1
 62
     7
  6
CONTINUOUS
 10
6.470000
 20
5.520000
 30
0.000000
 11
6.472167
 21
5.514365
 31
0.000000
  0
ARC
  8
1
 62
     7
  6
CONTINUOUS
 10
6.370000
 20
5.780000
 30
0.000000
 40
0.284605
 50
251.565051
 51
291.037511
  0
LINE
  8
1
 62
     7
  6
CONTINUOUS
 10
6.280000
 20
5.510000
 30
0.000000
 11
6.280000
 21
5.490000
 31
0.000000
  0
ARC
  8
1
 62
     7
  6
CONTINUOUS
 10
7.600000
 20
6.380000
 30
0.000000
 40
1.592011
 50
213.989520
 51
236.010480
  0
LINE
  8
1
 62
     7
  6
CONTINUOUS
 10
6.710000
 20
5.060000
 30
0.000000
 11
6.707071
 21
5.057071
 31
0.000000
  0
ARC
  8
1
 62
     7
  6
CONTINUOUS
 10
6.700000
 20
5.050000
 30
0.000000
 40
0.010000
 50
0.000000
 51
45.000000
  0
ARC
  8
1
 62
     7
  6
CONTINUOUS
 10
6.700000
 20
5.050000
 30
0.000000
 40
0.010000
 50
270.000000
 51
360.000000
  0
LINE
  8
1
 62
     7
  6
CONTINUOUS
 10
6.700000
 20
5.040000
 30
0.000000
 11
6.700602
 21
5.041328
 31
0.000000
  0
ARC
  8
1
 62
     7
  6
CONTINUOUS
 10
7.040000
 20
5.790000
 30
0.000000
 40
0.822010
 50
216.591088
 51
245.613629
  0
LINE
  8
1
 62
     7
  6
CONTINUOUS
 10
6.380000
 20
5.300000
 30
0.000000
 11
6.370000
 21
5.310000
 31
0.000000
  0
LINE
  8
1
 62
     7
  6
CONTINUOUS
 10
6.370000
 20
5.310000
 30
0.000000
 11
6.220000
 21
5.500000
 31
0.000000
  0
LINE
  8
1
 62
     7
  6
CONTINUOUS
 10
6.220000
 20
5.500000
 30
0.000000
 11
6.190000
 21
5.540000
 31
0.000000
  0
LINE
  8
1
 62
     7
  6
CONTINUOUS
 10
6.190000
 20
5.540000
 30
0.000000
 11
6.185102
 21
5.540966
 31
0.000000
  0
ARC
  8
1
 62
     7
  6
CONTINUOUS
 10
5.480000
 20
5.680000
 30
0.000000
 40
0.718679
 50
328.079124
 51
348.845340
  0
LINE
  8
1
 62
     7
  6
CONTINUOUS
 10
6.090000
 20
5.300000
 30
0.000000
 11
6.094177
 21
5.296818
 31
0.000000
  0
ARC
  8
1
 62
     7
  6
CONTINUOUS
 10
5.880000
 20
5.460000
 30
0.000000
 40
0.269258
 50
291.801409
 51
322.696052
  0
LINE
  8
1
 62
     7
  6
CONTINUOUS
 10
5.980000
 20
5.210000
 30
0.000000
 11
5.978651
 21
5.213421
 31
0.000000
  0
ARC
  8
1
 62
     7
  6
CONTINUOUS
 10
5.700000
 20
5.920000
 30
0.000000
 40
0.759539
 50
279.090277
 51
291.522600
  0
LINE
  8
1
 62
     7
  6
CONTINUOUS
 10
5.820000
 20
5.170000
 30
0.000000
 11
5.820513
 21
5.168460
 31
0.000000
  0
ARC
  8
1
 62
     7
  6
CONTINUOUS
 10
5.830000
 20
5.140000
 30
0.000000
 40
0.030000
 50
108.434949
 51
180.000000
  0
LINE
  8
1
 62
     7
  6
CONTINUOUS
 10
5.800000
 20
5.140000
 30
0.000000
 11
5.803788
 21
5.140352
 31
0.000000
  0
ARC
  8
1
 62
     7
  6
CONTINUOUS
 10
5.370000
 20
5.100000
 30
0.000000
 40
0.435660
 50
328.134022
 51
365.314546
  0
LINE
  8
1
 62
     7
  6
CONTINUOUS
 10
5.740000
 20
4.870000
 30
0.000000
 11
5.700000
 21
4.900000
 31
0.000000
  0
LINE
  8
1
 62
     7
  6
DOT
 10
5.700000
 20
4.900000
 30
0.000000
 11
5.720000
 21
4.860000
 31
0.000000
  0
LINE
  8
1
 62
     7
  6
CONTINUOUS
 10
5.720000
 20
4.860000
 30
0.000000
 11
5.670000
 21
4.800000
 31
0.000000
  0
LINE
  8
1
 62
     7
  6
CONTINUOUS
 10
5.670000
 20
4.800000
 30
0.000000
 11
5.669653
 21
4.800501
 31
0.000000
  0
ARC
  8
1
 62
     7
  6
CONTINUOUS
 10
5.110000
 20
5.610000
 30
0.000000
 40
0.984124
 50
295.263099
 51
304.658355
  0
LINE
  8
1
 62
     7
  6
CONTINUOUS
 10
5.530000
 20
4.720000
 30
0.000000
 11
5.510000
 21
4.710000
 31
0.000000
  0
LINE
  8
1
 62
     7
  6
CONTINUOUS
 10
5.510000
 20
4.710000
 30
0.000000
 11
5.520000
 21
4.690000
 31
0.000000
  0
LINE
  8
1
 62
     7
  6
CONTINUOUS
 10
5.520000
 20
4.690000
 30
0.000000
 11
5.520750
 21
4.692056
 31
0.000000
  0
ARC
  8
1
 62
     7
  6
CONTINUOUS
 10
4.980000
 20
3.210000
 30
0.000000
 40
1.577625
 50
46.797932
 51
69.954751
  0
ARC
  8
1
 62
     7
  6
CONTINUOUS
 10
6.050000
 20
4.360000
 30
0.000000
 40
0.010000
 50
270.000000
 51
360.000000
  0
ARC
  8
1
 62
     7
  6
CONTINUOUS
 10
6.040000
 20
4.350000
 30
0.000000
 40
0.010000
 50
270.000000
 51
360.000000
  0
LINE
  8
1
 62
     7
  6
CONTINUOUS
 10
6.040000
 20
4.340000
 30
0.000000
 11
6.020000
 21
4.360000
 31
0.000000
  0
LINE
  8
1
 62
     7
  6
CONTINUOUS
 10
6.020000
 20
4.360000
 30
0.000000
 11
6.015167
 21
4.354270
 31
0.000000
  0
ARC
  8
1
 62
     7
  6
CONTINUOUS
 10
5.050000
 20
3.210000
 30
0.000000
 40
1.496964
 50
49.853096
 51
69.264766
  0
LINE
  8
1
 62
     7
  6
CONTINUOUS
 10
5.580000
 20
4.610000
 30
0.000000
 11
5.578897
 21
4.609898
 31
0.000000
  0
ARC
  8
1
 62
     7
  6
CONTINUOUS
 10
5.040000
 20
4.560000
 30
0.000000
 40
0.541202
 50
343.909184
 51
365.290081
  0
LINE
  8
1
 62
     7
  6
CONTINUOUS
 10
5.560000
 20
4.410000
 30
0.000000
 11
5.520000
 21
4.340000
 31
0.000000
  0
LINE
  8
1
 62
     7
  6
CONTINUOUS
 10
5.520000
 20
4.340000
 30
0.000000
 11
5.490000
 21
4.320000
 31
0.000000
  0
LINE
  8
1
 62
     7
  6
CONTINUOUS
 10
5.490000
 20
4.320000
 30
0.000000
 11
5.460000
 21
4.320000
 31
0.000000
  0
LINE
  8
1
 62
     7
  6
CONTINUOUS
 10
5.460000
 20
4.320000
 30
0.000000
 11
5.460000
 21
4.330000
 31
0.000000
  0
LINE
  8
1
 62
     7
  6
CONTINUOUS
 10
5.460000
 20
4.330000
 30
0.000000
 11
5.461130
 21
4.328522
 31
0.000000
  0
ARC
  8
1
 62
     7
  6
CONTINUOUS
 10
5.330000
 20
4.500000
 30
0.000000
 40
0.215870
 50
307.405357
 51
346.607502
  0
LINE
  8
1
 62
     7
  6
CONTINUOUS
 10
5.540000
 20
4.450000
 30
0.000000
 11
5.543844
 21
4.448398
 31
0.000000
  0
ARC
  8
1
 62
     7
  6
CONTINUOUS
 10
5.420000
 20
4.500000
 30
0.000000
 40
0.134164
 50
337.380135
 51
423.434949
  0
LINE
  8
1
 62
     7
  6
CONTINUOUS
 10
5.480000
 20
4.620000
 30
0.000000
 11
5.480492
 21
4.620129
 31
0.000000
  0
ARC
  8
1
 62
     7
  6
CONTINUOUS
 10
5.290000
 20
4.570000
 30
0.000000
 40
0.196977
 50
293.962489
 51
374.743563
  0
LINE
  8
1
 62
     7
  6
CONTINUOUS
 10
5.370000
 20
4.390000
 30
0.000000
 11
5.310000
 21
4.370000
 31
0.000000
  0
LINE
  8
1
 62
     7
  6
CONTINUOUS
 10
5.310000
 20
4.370000
 30
0.000000
 11
5.280000
 21
4.360000
 31
0.000000
  0
LINE
  8
1
 62
     7
  6
CONTINUOUS
 10
5.280000
 20
4.360000
 30
0.000000
 11
5.280000
 21
4.365858
 31
0.000000
  0
ARC
  8
1
 62
     7
  6
CONTINUOUS
 10
5.280000
 20
4.380000
 30
0.000000
 40
0.014142
 50
225.000000
 51
270.000000
  0
LINE
  8
1
 62
     7
  6
CONTINUOUS
 10
5.270000
 20
4.370000
 30
0.000000
 11
5.272929
 21
4.372929
 31
0.000000
  0
ARC
  8
1
 62
     7
  6
CONTINUOUS
 10
5.280000
 20
4.380000
 30
0.000000
 40
0.010000
 50
90.000000
 51
225.000000
  0
LINE
  8
1
 62
     7
  6
CONTINUOUS
 10
5.280000
 20
4.390000
 30
0.000000
 11
5.279413
 21
4.392265
 31
0.000000
  0
ARC
  8
1
 62
     7
  6
CONTINUOUS
 10
5.210000
 20
4.660000
 30
0.000000
 40
0.276586
 50
284.534455
 51
319.398705
  0
LINE
  8
1
 62
     7
  6
CONTINUOUS
 10
5.420000
 20
4.480000
 30
0.000000
 11
5.420828
 21
4.479172
 31
0.000000
  0
ARC
  8
1
 62
     7
  6
CONTINUOUS
 10
5.360000
 20
4.540000
 30
0.000000
 40
0.086023
 50
315.000000
 51
414.462322
  0
LINE
  8
1
 62
     7
  6
CONTINUOUS
 10
5.410000
 20
4.610000
 30
0.000000
 11
5.403744
 21
4.611646
 31
0.000000
  0
ARC
  8
1
 62
     7
  6
CONTINUOUS
 10
5.220000
 20
4.660000
 30
0.000000
 40
0.190000
 50
270.000000
 51
345.256437
  0
LINE
  8
1
 62
     7
  6
CONTINUOUS
 10
5.220000
 20
4.470000
 30
0.000000
 11
5.219964
 21
4.469327
 31
0.000000
  0
ARC
  8
1
 62
     7
  6
CONTINUOUS
 10
5.240000
 20
4.840000
 30
0.000000
 40
0.371214
 50
242.744672
 51
266.905942
  0
ARC
  8
1
 62
     7
  6
CONTINUOUS
 10
5.080000
 20
4.520000
 30
0.000000
 40
0.014142
 50
45.000000
 51
225.000000
  0
LINE
  8
1
 62
     7
  6
CONTINUOUS
 10
5.090000
 20
4.530000
 30
0.000000
 11
5.091926
 21
4.533852
 31
0.000000
  0
ARC
  8
1
 62
     7
  6
CONTINUOUS
 10
5.200000
 20
4.750000
 30
0.000000
 40
0.241661
 50
243.434949
 51
294.443955
  0
LINE
  8
1
 62
     7
  6
CONTINUOUS
 10
5.300000
 20
4.530000
 30
0.000000
 11
5.298310
 21
4.533381
 31
0.000000
  0
ARC
  8
1
 62
     7
  6
CONTINUOUS
 10
5.240000
 20
4.650000
 30
0.000000
 40
0.130384
 50
296.565051
 51
364.398705
  0
LINE
  8
1
 62
     7
  6
CONTINUOUS
 10
5.370000
 20
4.660000
 30
0.000000
 11
5.350000
 21
4.650000
 31
0.000000
  0
ARC
  8
1
 62
     7
  6
CONTINUOUS
 10
5.220000
 20
4.690000
 30
0.000000
 40
0.136015
 50
287.102729
 51
342.897271
  0
LINE
  8
1
 62
     7
  6
CONTINUOUS
 10
5.260000
 20
4.560000
 30
0.000000
 11
5.200000
 21
4.550000
 31
0.000000
  0
LINE
  8
1
 62
     7
  6
CONTINUOUS
 10
5.200000
 20
4.550000
 30
0.000000
 11
5.130000
 21
4.560000
 31
0.000000
  0
LINE
  8
1
 62
     7
  6
CONTINUOUS
 10
5.130000
 20
4.560000
 30
0.000000
 11
5.070000
 21
4.570000
 31
0.000000
  0
ARC
  8
1
 62
     7
  6
CONTINUOUS
 10
5.060000
 20
4.550000
 30
0.000000
 40
0.022361
 50
63.434949
 51
153.434949
  0
LINE
  8
1
 62
     7
  6
CONTINUOUS
 10
5.040000
 20
4.560000
 30
0.000000
 11
5.048333
 21
4.556875
 31
0.000000
  0
ARC
  8
1
 62
     7
  6
CONTINUOUS
 10
4.960000
 20
4.590000
 30
0.000000
 40
0.094340
 50
237.994617
 51
339.443955
  0
LINE
  8
1
 62
     7
  6
CONTINUOUS
 10
4.910000
 20
4.510000
 30
0.000000
 11
4.908790
 21
4.508487
 31
0.000000
  0
ARC
  8
1
 62
     7
  6
CONTINUOUS
 10
4.990000
 20
4.610000
 30
0.000000
 40
0.130000
 50
90.000000
 51
231.340192
  0
LINE
  8
1
 62
     7
  6
CONTINUOUS
 10
4.990000
 20
4.740000
 30
0.000000
 11
4.990829
 21
4.735239
 31
0.000000
  0
ARC
  8
1
 62
     7
  6
CONTINUOUS
 10
4.600000
 20
6.980000
 30
0.000000
 40
2.278530
 50
279.876601
 51
292.174971
  0
LINE
  8
1
 62
     7
  6
CONTINUOUS
 10
5.460000
 20
4.870000
 30
0.000000
 11
5.459307
 21
4.872010
 31
0.000000
  0
ARC
  8
1
 62
     7
  6
CONTINUOUS
 10
5.360000
 20
5.160000
 30
0.000000
 40
0.304631
 50
289.025606
 51
336.801409
  0
LINE
  8
1
 62
     7
  6
CONTINUOUS
 10
5.640000
 20
5.040000
 30
0.000000
 11
5.631589
 21
5.042294
 31
0.000000
  0
ARC
  8
1
 62
     7
  6
CONTINUOUS
 10
5.420000
 20
5.100000
 30
0.000000
 40
0.219317
 50
344.744881
 51
403.152390
  0
LINE
  8
1
 62
     7
  6
CONTINUOUS
 10
5.580000
 20
5.250000
 30
0.000000
 11
5.585811
 21
5.255811
 31
0.000000
  0
ARC
  8
1
 62
     7
  6
CONTINUOUS
 10
5.570000
 20
5.240000
 30
0.000000
 40
0.022361
 50
45.000000
 51
153.434949
  0
LINE
  8
1
 62
     7
  6
CONTINUOUS
 10
5.550000
 20
5.250000
 30
0.000000
 11
5.548787
 21
5.250982
 31
0.000000
  0
ARC
  8
1
 62
     7
  6
CONTINUOUS
 10
4.130000
 20
6.400000
 30
0.000000
 40
1.825705
 50
312.780344
 51
320.997401
  0
LINE
  8
1
 62
     7
  6
CONTINUOUS
 10
5.370000
 20
5.060000
 30
0.000000
 11
5.260000
 21
4.970000
 31
0.000000
  0
LINE
  8
1
 62
     7
  6
CONTINUOUS
 10
5.260000
 20
4.970000
 30
0.000000
 11
5.250000
 21
4.960000
 31
0.000000
  0
ARC
  8
1
 62
     7
  6
CONTINUOUS
 10
5.240000
 20
4.970000
 30
0.000000
 40
0.014142
 50
225.000000
 51
315.000000
  0
ARC
  8
1
 62
     7
  6
CONTINUOUS
 10
5.240000
 20
4.970000
 30
0.000000
 40
0.014142
 50
135.000000
 51
225.000000
  0
LINE
  8
1
 62
     7
  6
CONTINUOUS
 10
5.230000
 20
4.980000
 30
0.000000
 11
5.240000
 21
5.000000
 31
0.000000
  0
LINE
  8
1
 62
     7
  6
CONTINUOUS
 10
5.240000
 20
5.000000
 30
0.000000
 11
5.244376
 21
4.994039
 31
0.000000
  0
ARC
  8
1
 62
     7
  6
CONTINUOUS
 10
4.550000
 20
5.940000
 30
0.000000
 40
1.173456
 50
306.280253
 51
327.528808
  0
LINE
  8
1
 62
     7
  6
CONTINUOUS
 10
5.540000
 20
5.310000
 30
0.000000
 11
5.545298
 21
5.307351
 31
0.000000
  0
ARC
  8
1
 62
     7
  6
CONTINUOUS
 10
5.520000
 20
5.320000
 30
0.000000
 40
0.028284
 50
333.434949
 51
405.000000
  0
LINE
  8
1
 62
     7
  6
CONTINUOUS
 10
5.540000
 20
5.340000
 30
0.000000
 11
5.543320
 21
5.342809
 31
0.000000
  0
ARC
  8
1
 62
     7
  6
CONTINUOUS
 10
5.410000
 20
5.230000
 30
0.000000
 40
0.174642
 50
40.236358
 51
66.370622
  0
LINE
  8
1
 62
     7
  6
CONTINUOUS
 10
5.480000
 20
5.390000
 30
0.000000
 11
5.478944
 21
5.386833
 31
0.000000
  0
ARC
  8
1
 62
     7
  6
CONTINUOUS
 10
5.470000
 20
5.360000
 30
0.000000
 40
0.028284
 50
71.565051
 51
135.000000
  0
LINE
  8
1
 62
     7
  6
CONTINUOUS
 10
5.450000
 20
5.380000
 30
0.000000
 11
5.450373
 21
5.379715
 31
0.000000
  0
ARC
  8
1
 62
     7
  6
CONTINUOUS
 10
4.350000
 20
6.220000
 30
0.000000
 40
1.384522
 50
305.297143
 51
322.633331
  0
LINE
  8
1
 62
     7
  6
CONTINUOUS
 10
5.150000
 20
5.090000
 30
0.000000
 11
5.140000
 21
5.080000
 31
0.000000
  0
ARC
  8
1
 62
     7
  6
CONTINUOUS
 10
5.130000
 20
5.090000
 30
0.000000
 40
0.014142
 50
225.000000
 51
315.000000
  0
ARC
  8
1
 62
     7
  6
CONTINUOUS
 10
5.130000
 20
5.090000
 30
0.000000
 40
0.014142
 50
135.000000
 51
225.000000
  0
LINE
  8
1
 62
     7
  6
CONTINUOUS
 10
5.120000
 20
5.100000
 30
0.000000
 11
5.130000
 21
5.110000
 31
0.000000
  0
LINE
  8
1
 62
     7
  6
CONTINUOUS
 10
5.130000
 20
5.110000
 30
0.000000
 11
5.125501
 21
5.116193
 31
0.000000
  0
ARC
  8
1
 62
     7
  6
CONTINUOUS
 10
4.360000
 20
6.170000
 30
0.000000
 40
1.302498
 50
305.995221
 51
321.546291
  0
LINE
  8
1
 62
     7
  6
CONTINUOUS
 10
5.380000
 20
5.360000
 30
0.000000
 11
5.385742
 21
5.349952
 31
0.000000
  0
ARC
  8
1
 62
     7
  6
CONTINUOUS
 10
5.340000
 20
5.430000
 30
0.000000
 40
0.092195
 50
299.744881
 51
372.528808
  0
LINE
  8
1
 62
     7
  6
CONTINUOUS
 10
5.430000
 20
5.450000
 30
0.000000
 11
5.418674
 21
5.443708
 31
0.000000
  0
ARC
  8
1
 62
     7
  6
CONTINUOUS
 10
5.340000
 20
5.400000
 30
0.000000
 40
0.090000
 50
29.054604
 51
90.000000
  0
LINE
  8
1
 62
     7
  6
CONTINUOUS
 10
5.340000
 20
5.490000
 30
0.000000
 11
5.340000
 21
5.498284
 31
0.000000
  0
ARC
  8
1
 62
     7
  6
CONTINUOUS
 10
5.340000
 20
5.470000
 30
0.000000
 40
0.028284
 50
90.000000
 51
135.000000
  0
LINE
  8
1
 62
     7
  6
CONTINUOUS
 10
5.320000
 20
5.490000
 30
0.000000
 11
5.323781
 21
5.486731
 31
0.000000
  0
ARC
  8
1
 62
     7
  6
CONTINUOUS
 10
3.990000
 20
6.640000
 30
0.000000
 40
1.763236
 50
309.015048
 51
319.151285
  0
LINE
  8
1
 62
     7
  6
CONTINUOUS
 10
5.100000
 20
5.270000
 30
0.000000
 11
5.096897
 21
5.272881
 31
0.000000
  0
ARC
  8
1
 62
     7
  6
CONTINUOUS
 10
4.960000
 20
5.400000
 30
0.000000
 40
0.186815
 50
285.524111
 51
317.121096
  0
LINE
  8
1
 62
     7
  6
CONTINUOUS
 10
5.010000
 20
5.220000
 30
0.000000
 11
5.010000
 21
5.215858
 31
0.000000
  0
ARC
  8
1
 62
     7
  6
CONTINUOUS
 10
5.010000
 20
5.230000
 30
0.000000
 40
0.014142
 50
225.000000
 51
270.000000
  0
ARC
  8
1
 62
     7
  6
CONTINUOUS
 10
5.010000
 20
5.230000
 30
0.000000
 40
0.014142
 50
135.000000
 51
225.000000
  0
LINE
  8
1
 62
     7
  6
CONTINUOUS
 10
5.000000
 20
5.240000
 30
0.000000
 11
5.010000
 21
5.240000
 31
0.000000
  0
LINE
  8
1
 62
     7
  6
CONTINUOUS
 10
5.010000
 20
5.240000
 30
0.000000
 11
5.010854
 21
5.238790
 31
0.000000
  0
ARC
  8
1
 62
     7
  6
CONTINUOUS
 10
4.290000
 20
6.260000
 30
0.000000
 40
1.250000
 50
305.217593
 51
323.130102
  0
LINE
  8
1
 62
     7
  6
CONTINUOUS
 10
5.290000
 20
5.510000
 30
0.000000
 11
5.290000
 21
5.540000
 31
0.000000
  0
LINE
  8
1
 62
     7
  6
CONTINUOUS
 10
5.290000
 20
5.540000
 30
0.000000
 11
5.298284
 21
5.540000
 31
0.000000
  0
ARC
  8
1
 62
     7
  6
CONTINUOUS
 10
5.270000
 20
5.540000
 30
0.000000
 40
0.028284
 50
0.000000
 51
45.000000
  0
LINE
  8
1
 62
     7
  6
CONTINUOUS
 10
5.290000
 20
5.560000
 30
0.000000
 11
5.240000
 21
5.600000
 31
0.000000
  0
LINE
  8
1
 62
     7
  6
CONTINUOUS
 10
5.240000
 20
5.600000
 30
0.000000
 11
5.251056
 21
5.605528
 31
0.000000
  0
ARC
  8
1
 62
     7
  6
CONTINUOUS
 10
5.260000
 20
5.610000
 30
0.000000
 40
0.010000
 50
90.000000
 51
206.565051
  0
LINE
  8
1
 62
     7
  6
CONTINUOUS
 10
5.260000
 20
5.620000
 30
0.000000
 11
5.310000
 21
5.590000
 31
0.000000
  0
LINE
  8
1
 62
     7
  6
CONTINUOUS
 10
5.310000
 20
5.590000
 30
0.000000
 11
5.340000
 21
5.580000
 31
0.000000
  0
LINE
  8
1
 62
     7
  6
CONTINUOUS
 10
5.340000
 20
5.580000
 30
0.000000
 11
5.360000
 21
5.590000
 31
0.000000
  0
LINE
  8
1
 62
     7
  6
CONTINUOUS
 10
5.360000
 20
5.590000
 30
0.000000
 11
5.355586
 21
5.593576
 31
0.000000
  0
ARC
  8
1
 62
     7
  6
CONTINUOUS
 10
3.990000
 20
6.700000
 30
0.000000
 40
1.757555
 50
320.984952
 51
333.289158
  0
LINE
  8
1
 62
     7
  6
CONTINUOUS
 10
5.560000
 20
5.910000
 30
0.000000
 11
5.570000
 21
5.920000
 31
0.000000
  0
LINE
  8
1
 62
     7
  6
CONTINUOUS
 10
5.570000
 20
5.920000
 30
0.000000
 11
5.565858
 21
5.920000
 31
0.000000
  0
ARC
  8
1
 62
     7
  6
CONTINUOUS
 10
5.580000
 20
5.920000
 30
0.000000
 40
0.014142
 50
45.000000
 51
180.000000
  0
LINE
  8
1
 62
     7
  6
CONTINUOUS
 10
5.590000
 20
5.930000
 30
0.000000
 11
5.600000
 21
5.920000
 31
0.000000
  0
LINE
  8
1
 62
     7
  6
CONTINUOUS
 10
5.600000
 20
5.920000
 30
0.000000
 11
5.597071
 21
5.917071
 31
0.000000
  0
ARC
  8
1
 62
     7
  6
CONTINUOUS
 10
5.590000
 20
5.910000
 30
0.000000
 40
0.010000
 50
0.000000
 51
45.000000
  0
LINE
  8
1
 62
     7
  6
CONTINUOUS
 10
5.600000
 20
5.910000
 30
0.000000
 11
5.580000
 21
5.860000
 31
0.000000
  0
LINE
  8
1
 62
     7
  6
CONTINUOUS
 10
5.580000
 20
5.860000
 30
0.000000
 11
5.581202
 21
5.859387
 31
0.000000
  0
ARC
  8
1
 62
     7
  6
CONTINUOUS
 10
3.600000
 20
6.870000
 30
0.000000
 40
2.224073
 50
323.593817
 51
332.973826
  0
LINE
  8
1
 62
     7
  6
CONTINUOUS
 10
5.390000
 20
5.550000
 30
0.000000
 11
5.393688
 21
5.547541
 31
0.000000
  0
ARC
  8
1
 62
     7
  6
CONTINUOUS
 10
5.420000
 20
5.530000
 30
0.000000
 40
0.031623
 50
146.309932
 51
251.565051
  0
LINE
  8
1
 62
     7
  6
CONTINUOUS
 10
5.410000
 20
5.500000
 30
0.000000
 11
5.460000
 21
5.480000
 31
0.000000
  0
LINE
  8
1
 62
     7
  6
CONTINUOUS
 10
5.460000
 20
5.480000
 30
0.000000
 11
5.457351
 21
5.474702
 31
0.000000
  0
ARC
  8
1
 62
     7
  6
CONTINUOUS
 10
5.470000
 20
5.500000
 30
0.000000
 40
0.028284
 50
243.434949
 51
315.000000
  0
LINE
  8
1
 62
     7
  6
CONTINUOUS
 10
5.490000
 20
5.480000
 30
0.000000
 11
5.489473
 21
5.480475
 31
0.000000
  0
ARC
  8
1
 62
     7
  6
CONTINUOUS
 10
4.180000
 20
6.660000
 30
0.000000
 40
1.762385
 50
317.988632
 51
332.271743
  0
LINE
  8
1
 62
     7
  6
CONTINUOUS
 10
5.740000
 20
5.840000
 30
0.000000
 11
5.742929
 21
5.837071
 31
0.000000
  0
ARC
  8
1
 62
     7
  6
CONTINUOUS
 10
5.750000
 20
5.830000
 30
0.000000
 40
0.010000
 50
90.000000
 51
135.000000
  0
LINE
  8
1
 62
     7
  6
CONTINUOUS
 10
5.750000
 20
5.840000
 30
0.000000
 11
5.750000
 21
5.844142
 31
0.000000
  0
ARC
  8
1
 62
     7
  6
CONTINUOUS
 10
5.750000
 20
5.830000
 30
0.000000
 40
0.014142
 50
315.000000
 51
450.000000
  0
LINE
  8
1
 62
     7
  6
CONTINUOUS
 10
5.760000
 20
5.820000
 30
0.000000
 11
5.730000
 21
5.750000
 31
0.000000
  0
LINE
  8
1
 62
     7
  6
CONTINUOUS
 10
5.730000
 20
5.750000
 30
0.000000
 11
5.723661
 21
5.753663
 31
0.000000
  0
ARC
  8
1
 62
     7
  6
CONTINUOUS
 10
3.740000
 20
6.900000
 30
0.000000
 40
2.291070
 50
321.379248
 51
329.976836
  0
LINE
  8
1
 62
     7
  6
CONTINUOUS
 10
5.530000
 20
5.470000
 30
0.000000
 11
5.530000
 21
5.440000
 31
0.000000
  0
ARC
  8
1
 62
     7
  6
CONTINUOUS
 10
5.550000
 20
5.430000
 30
0.000000
 40
0.022361
 50
153.434949
 51
243.434949
  0
LINE
  8
1
 62
     7
  6
CONTINUOUS
 10
5.540000
 20
5.410000
 30
0.000000
 11
5.537803
 21
5.406888
 31
0.000000
  0
ARC
  8
1
 62
     7
  6
CONTINUOUS
 10
5.660000
 20
5.580000
 30
0.000000
 40
0.211896
 50
234.782407
 51
250.709954
  0
ARC
  8
1
 62
     7
  6
CONTINUOUS
 10
5.600000
 20
5.400000
 30
0.000000
 40
0.022361
 50
243.434949
 51
333.434949
  0
LINE
  8
1
 62
     7
  6
CONTINUOUS
 10
5.620000
 20
5.390000
 30
0.000000
 11
5.623738
 21
5.386697
 31
0.000000
  0
ARC
  8
1
 62
     7
  6
CONTINUOUS
 10
4.330000
 20
6.530000
 30
0.000000
 40
1.726528
 50
318.532295
 51
332.396020
  0
LINE
  8
1
 62
     7
  6
CONTINUOUS
 10
5.860000
 20
5.730000
 30
0.000000
 11
5.870000
 21
5.750000
 31
0.000000
  0
LINE
  8
1
 62
     7
  6
CONTINUOUS
 10
5.870000
 20
5.750000
 30
0.000000
 11
5.872929
 21
5.747071
 31
0.000000
  0
ARC
  8
1
 62
     7
  6
CONTINUOUS
 10
5.880000
 20
5.740000
 30
0.000000
 40
0.010000
 50
90.000000
 51
135.000000
  0
LINE
  8
1
 62
     7
  6
CONTINUOUS
 10
5.880000
 20
5.750000
 30
0.000000
 11
5.890000
 21
5.740000
 31
0.000000
  0
LINE
  8
1
 62
     7
  6
CONTINUOUS
 10
5.890000
 20
5.740000
 30
0.000000
 11
5.887071
 21
5.737071
 31
0.000000
  0
ARC
  8
1
 62
     7
  6
CONTINUOUS
 10
5.880000
 20
5.730000
 30
0.000000
 40
0.010000
 50
0.000000
 51
45.000000
  0
LINE
  8
1
 62
     7
  6
CONTINUOUS
 10
5.890000
 20
5.730000
 30
0.000000
 11
5.880000
 21
5.700000
 31
0.000000
  0
LINE
  8
1
 62
     7
  6
CONTINUOUS
 10
5.880000
 20
5.700000
 30
0.000000
 11
5.876736
 21
5.701845
 31
0.000000
  0
ARC
  8
1
 62
     7
  6
CONTINUOUS
 10
3.580000
 20
7.000000
 30
0.000000
 40
2.638219
 50
322.391684
 51
330.524111
  0
LINE
  8
1
 62
     7
  6
CONTINUOUS
 10
5.670000
 20
5.390000
 30
0.000000
 11
5.660000
 21
5.360000
 31
0.000000
  0
LINE
  8
1
 62
     7
  6
CONTINUOUS
 10
5.660000
 20
5.360000
 30
0.000000
 11
5.658377
 21
5.360000
 31
0.000000
  0
ARC
  8
1
 62
     7
  6
CONTINUOUS
 10
5.690000
 20
5.360000
 30
0.000000
 40
0.031623
 50
180.000000
 51
251.565051
  0
LINE
  8
1
 62
     7
  6
CONTINUOUS
 10
5.680000
 20
5.330000
 30
0.000000
 11
5.682527
 21
5.335307
 31
0.000000
  0
ARC
  8
1
 62
     7
  6
CONTINUOUS
 10
5.780000
 20
5.540000
 30
0.000000
 40
0.226716
 50
244.536655
 51
318.576334
  0
LINE
  8
1
 62
     7
  6
CONTINUOUS
 10
5.950000
 20
5.390000
 30
0.000000
 11
5.949229
 21
5.390584
 31
0.000000
  0
ARC
  8
1
 62
     7
  6
CONTINUOUS
 10
5.620000
 20
5.640000
 30
0.000000
 40
0.413038
 50
322.853313
 51
353.047043
  0
LINE
  8
1
 62
     7
  6
CONTINUOUS
 10
6.030000
 20
5.590000
 30
0.000000
 11
6.033146
 21
5.589470
 31
0.000000
  0
ARC
  8
1
 62
     7
  6
CONTINUOUS
 10
3.420000
 20
6.030000
 30
0.000000
 40
2.650019
 50
350.430916
 51
360.216209
  0
LINE
  8
1
 62
     7
  6
CONTINUOUS
 10
6.070000
 20
6.040000
 30
0.000000
 11
6.064453
 21
6.039075
 31
0.000000
  0
ARC
  8
1
 62
     7
  6
CONTINUOUS
 10
6.190000
 20
6.060000
 30
0.000000
 40
0.127279
 50
45.000000
 51
189.462322
  0
LINE
  8
1
 62
     7
  6
DOT
 10
6.280000
 20
6.150000
 30
0.000000
 11
6.220000
 21
5.340000
 31
0.000000
  0
LINE
  8
1
 62
     7
  6
CONTINUOUS
 10
6.220000
 20
5.340000
 30
0.000000
 11
6.210000
 21
5.330000
 31
0.000000
  0
LINE
  8
1
 62
     7
  6
CONTINUOUS
 10
6.210000
 20
5.330000
 30
0.000000
 11
6.220000
 21
5.310000
 31
0.000000
  0
LINE
  8
1
 62
     7
  6
CONTINUOUS
 10
6.220000
 20
5.310000
 30
0.000000
 11
6.217805
 21
5.307585
 31
0.000000
  0
ARC
  8
1
 62
     7
  6
CONTINUOUS
 10
5.920000
 20
4.980000
 30
0.000000
 40
0.442719
 50
18.434949
 51
47.726311
  0
LINE
  8
1
 62
     7
  6
CONTINUOUS
 10
6.340000
 20
5.120000
 30
0.000000
 11
6.340000
 21
4.930000
 31
0.000000
  0
LINE
  8
1
 62
     7
  6
CONTINUOUS
 10
6.340000
 20
4.930000
 30
0.000000
 11
6.337876
 21
4.930503
 31
0.000000
  0
ARC
  8
1
 62
     7
  6
CONTINUOUS
 10
5.960000
 20
5.020000
 30
0.000000
 40
0.388330
 50
281.888658
 51
346.675469
  0
LINE
  8
1
 62
     7
  6
CONTINUOUS
 10
6.040000
 20
4.640000
 30
0.000000
 11
6.039663
 21
4.642827
 31
0.000000
  0
ARC
  8
1
 62
     7
  6
CONTINUOUS
 10
5.990000
 20
5.060000
 30
0.000000
 40
0.420119
 50
231.766175
 51
276.788975
  0
LINE
  8
1
 62
     7
  6
CONTINUOUS
 10
5.730000
 20
4.730000
 30
0.000000
 11
5.710000
 21
4.730000
 31
0.000000
  0
LINE
  8
1
 62
     7
  6
CONTINUOUS
 10
5.710000
 20
4.730000
 30
0.000000
 11
5.709010
 21
4.730000
 31
0.000000
  0
ARC
  8
1
 62
     7
  6
CONTINUOUS
 10
5.760000
 20
4.730000
 30
0.000000
 40
0.050990
 50
180.000000
 51
258.690068
  0
LINE
  8
1
 62
     7
  6
CONTINUOUS
 10
5.750000
 20
4.680000
 30
0.000000
 11
5.760000
 21
4.690000
 31
0.000000
  0
LINE
  8
1
 62
     7
  6
DOT
 10
5.760000
 20
4.690000
 30
0.000000
 11
5.750000
 21
4.680000
 31
0.000000
  0
LINE
  8
1
 62
     7
  6
DOT
 10
5.750000
 20
4.680000
 30
0.000000
 11
5.749486
 21
4.679182
 31
0.000000
  0
ARC
  8
1
 62
     7
  6
CONTINUOUS
 10
5.970000
 20
5.030000
 30
0.000000
 40
0.414367
 50
237.847705
 51
340.253163
  0
LINE
  8
1
 62
     7
  6
CONTINUOUS
 10
6.360000
 20
4.890000
 30
0.000000
 11
6.362100
 21
4.889665
 31
0.000000
  0
ARC
  8
1
 62
     7
  6
CONTINUOUS
 10
4.480000
 20
5.190000
 30
0.000000
 40
1.905912
 50
350.933497
 51
355.486012
  0
LINE
  8
1
 62
     7
  6
CONTINUOUS
 10
6.380000
 20
5.040000
 30
0.000000
 11
6.383564
 21
5.040183
 31
0.000000
  0
ARC
  8
1
 62
     7
  6
CONTINUOUS
 10
5.990000
 20
5.020000
 30
0.000000
 40
0.394081
 50
2.935673
 51
54.293309
  0
LINE
  8
1
 62
     7
  6
DOT
 10
6.220000
 20
5.340000
 30
0.000000
 11
5.740000
 21
4.870000
 31
0.000000
  0
LINE
  8
1
 62
     7
  6
CONTINUOUS
 10
5.740000
 20
4.870000
 30
0.000000
 11
5.720000
 21
4.860000
 31
0.000000
  0
LINE
  8
1
 62
     7
  6
DOT
 10
5.720000
 20
4.860000
 30
0.000000
 11
6.230000
 21
4.390000
 31
0.000000
  0
LINE
  8
1
 62
     7
  6
CONTINUOUS
 10
6.230000
 20
4.390000
 30
0.000000
 11
6.170000
 21
4.220000
 31
0.000000
  0
LINE
  8
1
 62
     7
  6
CONTINUOUS
 10
6.170000
 20
4.220000
 30
0.000000
 11
6.140000
 21
4.200000
 31
0.000000
  0
LINE
  8
1
 62
     7
  6
CONTINUOUS
 10
6.140000
 20
4.200000
 30
0.000000
 11
6.137319
 21
4.200560
 31
0.000000
  0
ARC
  8
1
 62
     7
  6
CONTINUOUS
 10
7.050000
 20
4.010000
 30
0.000000
 40
0.932363
 50
141.532137
 51
168.206570
  0
LINE
  8
1
 62
     7
  6
CONTINUOUS
 10
6.320000
 20
4.590000
 30
0.000000
 11
6.410000
 21
4.700000
 31
0.000000
  0
LINE
  8
1
 62
     7
  6
CONTINUOUS
 10
6.410000
 20
4.700000
 30
0.000000
 11
6.411435
 21
4.698844
 31
0.000000
  0
ARC
  8
1
 62
     7
  6
CONTINUOUS
 10
6.770000
 20
4.410000
 30
0.000000
 40
0.460435
 50
124.380345
 51
141.146626
  0
LINE
  8
1
 62
     7
  6
CONTINUOUS
 10
6.510000
 20
4.790000
 30
0.000000
 11
6.509543
 21
4.790378
 31
0.000000
  0
ARC
  8
1
 62
     7
  6
CONTINUOUS
 10
7.030000
 20
4.360000
 30
0.000000
 40
0.675352
 50
117.323891
 51
140.411869
  0
LINE
  8
1
 62
     7
  6
CONTINUOUS
 10
6.720000
 20
4.960000
 30
0.000000
 11
6.730000
 21
4.970000
 31
0.000000
  0
LINE
  8
1
 62
     7
  6
CONTINUOUS
 10
6.730000
 20
4.970000
 30
0.000000
 11
6.790000
 21
5.000000
 31
0.000000
  0
LINE
  8
1
 62
     7
  6
CONTINUOUS
 10
6.790000
 20
5.000000
 30
0.000000
 11
6.790000
 21
4.970000
 31
0.000000
  0
LINE
  8
1
 62
     7
  6
CONTINUOUS
 10
6.790000
 20
4.970000
 30
0.000000
 11
6.791524
 21
4.967136
 31
0.000000
  0
ARC
  8
1
 62
     7
  6
CONTINUOUS
 10
7.370000
 20
3.880000
 30
0.000000
 40
1.231463
 50
118.017894
 51
145.922805
  0
LINE
  8
1
 62
     7
  6
CONTINUOUS
 10
6.350000
 20
4.570000
 30
0.000000
 11
6.290000
 21
4.480000
 31
0.000000
  0
LINE
  8
1
 62
     7
  6
CONTINUOUS
 10
6.290000
 20
4.480000
 30
0.000000
 11
6.280000
 21
4.490000
 31
0.000000
  0
LINE
  8
1
 62
     7
  6
DOT
 10
6.280000
 20
4.490000
 30
0.000000
 11
6.290000
 21
4.480000
 31
0.000000
  0
LINE
  8
1
 62
     7
  6
CONTINUOUS
 10
6.290000
 20
4.480000
 30
0.000000
 11
6.230000
 21
4.390000
 31
0.000000
  0
LINE
  8
1
 62
     7
  6
DOT
 10
6.230000
 20
4.390000
 30
0.000000
 11
6.400000
 21
4.220000
 31
0.000000
  0
LINE
  8
1
 62
     7
  6
DOT
 10
6.400000
 20
4.220000
 30
0.000000
 11
6.397868
 21
4.220853
 31
0.000000
  0
ARC
  8
1
 62
     7
  6
CONTINUOUS
 10
6.500000
 20
4.180000
 30
0.000000
 40
0.110000
 50
158.198591
 51
270.000000
  0
LINE
  8
1
 62
     7
  6
CONTINUOUS
 10
6.500000
 20
4.070000
 30
0.000000
 11
6.540000
 21
4.070000
 31
0.000000
  0
LINE
  8
1
 62
     7
  6
CONTINUOUS
 10
6.540000
 20
4.070000
 30
0.000000
 11
6.539565
 21
4.071413
 31
0.000000
  0
ARC
  8
1
 62
     7
  6
CONTINUOUS
 10
6.500000
 20
4.200000
 30
0.000000
 40
0.134536
 50
287.102729
 51
318.012788
  0
LINE
  8
1
 62
     7
  6
CONTINUOUS
 10
6.600000
 20
4.110000
 30
0.000000
 11
6.660000
 21
4.210000
 31
0.000000
  0
LINE
  8
1
 62
     7
  6
CONTINUOUS
 10
6.660000
 20
4.210000
 30
0.000000
 11
6.670000
 21
4.220000
 31
0.000000
  0
LINE
  8
1
 62
     7
  6
CONTINUOUS
 10
6.670000
 20
4.220000
 30
0.000000
 11
6.690000
 21
4.210000
 31
0.000000
  0
LINE
  8
1
 62
     7
  6
CONTINUOUS
 10
6.690000
 20
4.210000
 30
0.000000
 11
6.692929
 21
4.212929
 31
0.000000
  0
ARC
  8
1
 62
     7
  6
CONTINUOUS
 10
6.700000
 20
4.220000
 30
0.000000
 40
0.010000
 50
225.000000
 51
360.000000
  0
LINE
  8
1
 62
     7
  6
CONTINUOUS
 10
6.710000
 20
4.220000
 30
0.000000
 11
6.718372
 21
4.221288
 31
0.000000
  0
ARC
  8
1
 62
     7
  6
CONTINUOUS
 10
6.580000
 20
4.200000
 30
0.000000
 40
0.140000
 50
8.746162
 51
90.000000
  0
LINE
  8
1
 62
     7
  6
CONTINUOUS
 10
6.580000
 20
4.340000
 30
0.000000
 11
6.579677
 21
4.342911
 31
0.000000
  0
ARC
  8
1
 62
     7
  6
CONTINUOUS
 10
6.610000
 20
4.070000
 30
0.000000
 40
0.274591
 50
96.340192
 51
123.111342
  0
LINE
  8
1
 62
     7
  6
CONTINUOUS
 10
6.460000
 20
4.300000
 30
0.000000
 11
6.420000
 21
4.260000
 31
0.000000
  0
LINE
  8
1
 62
     7
  6
CONTINUOUS
 10
6.420000
 20
4.260000
 30
0.000000
 11
6.400000
 21
4.220000
 31
0.000000
  0
LINE
  8
1
 62
     7
  6
DOT
 10
6.400000
 20
4.220000
 30
0.000000
 11
6.410000
 21
4.120000
 31
0.000000
  0
LINE
  8
1
 62
     7
  6
CONTINUOUS
 10
6.410000
 20
4.120000
 30
0.000000
 11
6.490000
 21
4.170000
 31
0.000000
  0
LINE
  8
1
 62
     7
  6
DOT
 10
6.490000
 20
4.170000
 30
0.000000
 11
6.750000
 21
3.940000
 31
0.000000
  0
LINE
  8
1
 62
     7
  6
CONTINUOUS
 10
6.750000
 20
3.940000
 30
0.000000
 11
6.850000
 21
4.110000
 31
0.000000
  0
LINE
  8
1
 62
     7
  6
CONTINUOUS
 10
6.850000
 20
4.110000
 30
0.000000
 11
6.846262
 21
4.112359
 31
0.000000
  0
ARC
  8
1
 62
     7
  6
CONTINUOUS
 10
7.690000
 20
3.580000
 30
0.000000
 40
0.997647
 50
132.969086
 51
147.750026
  0
LINE
  8
1
 62
     7
  6
CONTINUOUS
 10
7.010000
 20
4.310000
 30
0.000000
 11
7.030000
 21
4.330000
 31
0.000000
  0
LINE
  8
1
 62
     7
  6
CONTINUOUS
 10
7.030000
 20
4.330000
 30
0.000000
 11
7.080000
 21
4.370000
 31
0.000000
  0
LINE
  8
1
 62
     7
  6
CONTINUOUS
 10
7.080000
 20
4.370000
 30
0.000000
 11
7.160000
 21
4.430000
 31
0.000000
  0
LINE
  8
1
 62
     7
  6
CONTINUOUS
 10
7.160000
 20
4.430000
 30
0.000000
 11
7.210000
 21
4.470000
 31
0.000000
  0
LINE
  8
1
 62
     7
  6
CONTINUOUS
 10
7.210000
 20
4.470000
 30
0.000000
 11
7.230000
 21
4.470000
 31
0.000000
  0
LINE
  8
1
 62
     7
  6
CONTINUOUS
 10
7.230000
 20
4.470000
 30
0.000000
 11
7.240000
 21
4.450000
 31
0.000000
  0
LINE
  8
1
 62
     7
  6
CONTINUOUS
 10
7.240000
 20
4.450000
 30
0.000000
 11
7.200000
 21
4.430000
 31
0.000000
  0
LINE
  8
1
 62
     7
  6
CONTINUOUS
 10
7.200000
 20
4.430000
 30
0.000000
 11
7.190000
 21
4.440000
 31
0.000000
  0
LINE
  8
1
 62
     7
  6
DOT
 10
7.190000
 20
4.440000
 30
0.000000
 11
7.200000
 21
4.430000
 31
0.000000
  0
LINE
  8
1
 62
     7
  6
CONTINUOUS
 10
7.200000
 20
4.430000
 30
0.000000
 11
7.160000
 21
4.400000
 31
0.000000
  0
LINE
  8
1
 62
     7
  6
CONTINUOUS
 10
7.160000
 20
4.400000
 30
0.000000
 11
7.060000
 21
4.330000
 31
0.000000
  0
LINE
  8
1
 62
     7
  6
CONTINUOUS
 10
7.060000
 20
4.330000
 30
0.000000
 11
7.030000
 21
4.300000
 31
0.000000
  0
LINE
  8
1
 62
     7
  6
CONTINUOUS
 10
7.030000
 20
4.300000
 30
0.000000
 11
7.030493
 21
4.299475
 31
0.000000
  0
ARC
  8
1
 62
     7
  6
CONTINUOUS
 10
7.790000
 20
3.490000
 30
0.000000
 40
1.110000
 50
133.175910
 51
161.075356
  0
LINE
  8
1
 62
     7
  6
CONTINUOUS
 10
6.740000
 20
3.850000
 30
0.000000
 11
6.720000
 21
3.810000
 31
0.000000
  0
LINE
  8
1
 62
     7
  6
CONTINUOUS
 10
6.720000
 20
3.810000
 30
0.000000
 11
6.720000
 21
3.860000
 31
0.000000
  0
LINE
  8
1
 62
     7
  6
CONTINUOUS
 10
6.720000
 20
3.860000
 30
0.000000
 11
6.750000
 21
3.940000
 31
0.000000
  0
LINE
  8
1
 62
     7
  6
DOT
 10
6.750000
 20
3.940000
 30
0.000000
 11
6.880000
 21
4.430000
 31
0.000000
  0
LINE
  8
1
 62
     7
  6
CONTINUOUS
 10
6.880000
 20
4.430000
 30
0.000000
 11
6.880000
 21
4.440000
 31
0.000000
  0
LINE
  8
1
 62
     7
  6
CONTINUOUS
 10
6.880000
 20
4.440000
 30
0.000000
 11
6.879303
 21
4.436515
 31
0.000000
  0
ARC
  8
1
 62
     7
  6
CONTINUOUS
 10
6.910000
 20
4.590000
 30
0.000000
 40
0.156525
 50
153.434949
 51
258.690068
  0
LINE
  8
1
 62
     7
  6
CONTINUOUS
 10
6.770000
 20
4.660000
 30
0.000000
 11
6.781060
 21
4.657448
 31
0.000000
  0
ARC
  8
1
 62
     7
  6
CONTINUOUS
 10
6.900000
 20
4.630000
 30
0.000000
 40
0.122066
 50
34.992020
 51
167.005383
  0
LINE
  8
1
 62
     7
  6
CONTINUOUS
 10
7.000000
 20
4.700000
 30
0.000000
 11
7.000000
 21
4.620000
 31
0.000000
  0
LINE
  8
1
 62
     7
  6
CONTINUOUS
 10
7.000000
 20
4.620000
 30
0.000000
 11
7.008546
 21
4.616439
 31
0.000000
  0
ARC
  8
1
 62
     7
  6
CONTINUOUS
 10
6.760000
 20
4.720000
 30
0.000000
 40
0.269258
 50
301.328693
 51
337.380135
  0
LINE
  8
1
 62
     7
  6
CONTINUOUS
 10
6.900000
 20
4.490000
 30
0.000000
 11
6.890000
 21
4.450000
 31
0.000000
  0
LINE
  8
1
 62
     7
  6
CONTINUOUS
 10
6.890000
 20
4.450000
 30
0.000000
 11
6.900000
 21
4.450000
 31
0.000000
  0
ARC
  8
1
 62
     7
  6
CONTINUOUS
 10
6.880000
 20
4.450000
 30
0.000000
 40
0.020000
 50
270.000000
 51
360.000000
  0
LINE
  8
1
 62
     7
  6
DOT
 10
6.880000
 20
4.430000
 30
0.000000
 11
6.890000
 21
4.660000
 31
0.000000
  0
LINE
  8
1
 62
     7
  6
CONTINUOUS
 10
6.890000
 20
4.660000
 30
0.000000
 11
6.870000
 21
4.760000
 31
0.000000
  0
LINE
  8
1
 62
     7
  6
DOT
 10
6.870000
 20
4.760000
 30
0.000000
 11
4.590000
 21
4.670000
 31
0.000000
  0
LINE
  8
1
 62
     7
  6
DOT
 10
4.590000
 20
4.670000
 30
0.000000
 11
4.592440
 21
4.672621
 31
0.000000
  0
ARC
  8
1
 62
     7
  6
CONTINUOUS
 10
5.400000
 20
5.540000
 30
0.000000
 40
1.185116
 50
206.565051
 51
227.045408
  0
ARC
  8
1
 62
     7
  6
CONTINUOUS
 10
4.320000
 20
5.000000
 30
0.000000
 40
0.022361
 50
26.565051
 51
153.434949
  0
LINE
  8
1
 62
     7
  6
CONTINUOUS
 10
4.300000
 20
5.010000
 30
0.000000
 11
4.300070
 21
5.009949
 31
0.000000
  0
ARC
  8
1
 62
     7
  6
CONTINUOUS
 10
2.440000
 20
6.360000
 30
0.000000
 40
2.298369
 50
314.118596
 51
324.027613
  0
LINE
  8
1
 62
     7
  6
CONTINUOUS
 10
4.040000
 20
4.710000
 30
0.000000
 11
3.960000
 21
4.660000
 31
0.000000
  0
LINE
  8
1
 62
     7
  6
CONTINUOUS
 10
3.960000
 20
4.660000
 30
0.000000
 11
3.964569
 21
4.652385
 31
0.000000
  0
ARC
  8
1
 62
     7
  6
CONTINUOUS
 10
3.690000
 20
5.110000
 30
0.000000
 40
0.533667
 50
257.005383
 51
300.963757
  0
LINE
  8
1
 62
     7
  6
CONTINUOUS
 10
3.570000
 20
4.590000
 30
0.000000
 11
3.573087
 21
4.597660
 31
0.000000
  0
ARC
  8
1
 62
     7
  6
CONTINUOUS
 10
3.300000
 20
3.920000
 30
0.000000
 40
0.730616
 50
68.051301
 51
87.646703
  0
LINE
  8
1
 62
     7
  6
CONTINUOUS
 10
3.330000
 20
4.650000
 30
0.000000
 11
3.300000
 21
4.640000
 31
0.000000
  0
ARC
  8
1
 62
     7
  6
CONTINUOUS
 10
3.300000
 20
4.620000
 30
0.000000
 40
0.020000
 50
90.000000
 51
180.000000
  0
LINE
  8
1
 62
     7
  6
CONTINUOUS
 10
3.280000
 20
4.620000
 30
0.000000
 11
3.278251
 21
4.620280
 31
0.000000
  0
ARC
  8
1
 62
     7
  6
CONTINUOUS
 10
3.530000
 20
4.580000
 30
0.000000
 40
0.254951
 50
170.909723
 51
205.559965
  0
LINE
  8
1
 62
     7
  6
CONTINUOUS
 10
3.300000
 20
4.470000
 30
0.000000
 11
3.301457
 21
4.471259
 31
0.000000
  0
ARC
  8
1
 62
     7
  6
CONTINUOUS
 10
3.890000
 20
4.980000
 30
0.000000
 40
0.777946
 50
220.840358
 51
252.030860
  0
LINE
  8
1
 62
     7
  6
CONTINUOUS
 10
3.650000
 20
4.240000
 30
0.000000
 11
3.651574
 21
4.245549
 31
0.000000
  0
ARC
  8
1
 62
     7
  6
CONTINUOUS
 10
3.840000
 20
4.910000
 30
0.000000
 40
0.690652
 50
254.167613
 51
304.380345
  0
LINE
  8
1
 62
     7
  6
CONTINUOUS
 10
4.230000
 20
4.340000
 30
0.000000
 11
4.231106
 21
4.338252
 31
0.000000
  0
ARC
  8
1
 62
     7
  6
CONTINUOUS
 10
3.300000
 20
5.810000
 30
0.000000
 40
1.741551
 50
302.319617
 51
317.792702
  0
LINE
  8
1
 62
     7
  6
CONTINUOUS
 10
4.590000
 20
4.640000
 30
0.000000
 11
4.585811
 21
4.644189
 31
0.000000
  0
ARC
  8
1
 62
     7
  6
CONTINUOUS
 10
4.570000
 20
4.660000
 30
0.000000
 40
0.022361
 50
315.000000
 51
386.565051
  0
LINE
  8
1
 62
     7
  6
DOT
 10
4.590000
 20
4.670000
 30
0.000000
 11
4.450000
 21
4.830000
 31
0.000000
  0
LINE
  8
1
 62
     7
  6
CONTINUOUS
 10
4.450000
 20
4.830000
 30
0.000000
 11
4.290000
 21
4.710000
 31
0.000000
  0
ENDSEC
  0
EOF
